# xmcd CD database file
#
# Track frame offsets:
#	150
#	14485
#	29294
#	39680
#	54354
#	68917
#	83662
#	97651
#	112402
#	123872
#	138251
#	151920
#	166497
#	182928
#	194044
#	213760
#	224866
#	234242
#	255057
#	265693
#	275809
#	296459
#
# Disc length: 4301 seconds
#
# Revision: 0
# Processed by: cddbd v1.4PL0 Copyright (c) Steve Scherf et al.
# Submitted via: CDex 1.50beta8
#
DISCID=3e10cb16
DTITLE=Ella Fitzgerald - Mr Paganini
DYEAR=2002
DGENRE=Jazz
TTITLE0=Can Anyone Explain
TTITLE1=Would You Like To Take A Walk ?
TTITLE2=Who Walks In When I Walk Out ?
TTITLE3=Someone To Watch Over Me
TTITLE4=But Not For Me
TTITLE5=I've Got The World On A String
TTITLE6=Smooth Sailin'
TTITLE7=How Long Has This Been Going On ?
TTITLE8=Necessary Evil
TTITLE9=Oops
TTITLE10=Love You Madly
TTITLE11=Ain't Nobody's Buisiness But My Own
TTITLE12=There's A Small Hotel
TTITLE13=Ool-Ya-Koo
TTITLE14=Mr Paganini
TTITLE15=Robbin's Nest
TTITLE16=Thou Swell
TTITLE17=Flyin' Home
TTITLE18=In A Mellotone
TTITLE19=Almost Like Being In Love
TTITLE20=Lover Man
TTITLE21=How High The Moon
EXTD=YEAR: 2002
EXTT0=
EXTT1=
EXTT2=
EXTT3=
EXTT4=
EXTT5=
EXTT6=
EXTT7=
EXTT8=
EXTT9=
EXTT10=
EXTT11=
EXTT12=
EXTT13=
EXTT14=
EXTT15=
EXTT16=
EXTT17=
EXTT18=
EXTT19=
EXTT20=
EXTT21=
PLAYORDER=
